<?xml version="1.0" standalone="no"?>
<!DOCTYPE svg PUBLIC "-//W3C//DTD SVG 20010904//EN"
 "http://www.w3.org/TR/2001/REC-SVG-20010904/DTD/svg10.dtd">
<svg version="1.0" xmlns="http://www.w3.org/2000/svg"
 width="200.000000pt" height="200.000000pt" viewBox="0 0 200.000000 200.000000"
 preserveAspectRatio="xMidYMid meet">
<metadata>
Created by potrace 1.11, written by Peter Selinger 2001-2013
</metadata>
<g transform="translate(0.000000,200.000000) scale(0.100000,-0.100000)"
fill="#000000" stroke="none">
<path d="M925 1659 c-224 -27 -425 -195 -495 -414 -7 -22 -22 -52 -34 -68 -14
-19 -21 -48 -24 -92 -5 -83 3 -128 32 -162 12 -15 30 -49 40 -75 14 -39 15
-54 6 -90 -49 -179 114 -347 394 -408 68 -15 239 -15 311 -1 175 36 320 126
378 236 20 40 24 87 17 205 -3 48 14 94 53 143 40 51 30 257 -12 257 -5 0 -12
16 -15 35 -12 61 -83 189 -138 246 -94 99 -226 170 -338 183 -97 12 -114 12
-175 5z m45 -165 c5 -93 6 -99 27 -102 31 -5 40 24 39 125 -1 76 0 81 19 79
38 -4 44 -15 43 -77 -1 -56 8 -79 32 -79 23 0 34 24 34 74 0 32 4 56 10 56 32
0 145 -70 199 -124 108 -107 159 -233 156 -386 -3 -146 -52 -263 -154 -365
-181 -180 -463 -206 -674 -62 -223 152 -294 442 -168 682 53 102 188 220 285
250 21 6 22 4 22 -48 0 -61 19 -89 48 -70 12 7 17 26 18 73 1 63 11 80 43 75
13 -1 17 -20 21 -101z m-409 -831 c53 -63 185 -147 264 -168 17 -5 37 -10 45
-13 8 -2 63 -6 121 -8 93 -2 116 1 185 24 105 36 183 84 254 158 33 34 61 60
63 57 7 -6 -12 -82 -28 -112 -22 -43 -91 -100 -159 -132 -94 -44 -179 -62
-291 -62 -146 -1 -208 11 -311 58 -121 55 -194 139 -194 222 1 32 3 35 13 22
7 -8 24 -29 38 -46z"/>
<path d="M958 1305 c-2 -2 -28 -6 -58 -9 -170 -20 -324 -110 -350 -206 -62
-230 162 -461 445 -461 146 1 260 44 351 135 86 86 114 154 110 263 -3 84 -22
123 -84 168 -54 39 -191 92 -260 101 -61 7 -151 12 -154 9z m151 -80 c89 -12
213 -67 256 -115 17 -18 20 -36 20 -104 0 -70 -4 -87 -27 -127 -62 -105 -176
-171 -321 -185 -169 -16 -349 77 -408 212 -25 56 -27 155 -4 190 36 55 168
115 290 133 59 8 106 7 194 -4z"/>
<path d="M1130 1135 c-17 -20 -8 -29 67 -69 51 -27 59 -36 68 -73 12 -51 18
-57 45 -48 20 6 22 12 18 56 -6 59 -31 90 -100 125 -55 28 -80 30 -98 9z"/>
</g>
</svg>
